<svg width="30" height="31" viewBox="0 0 30 31" fill="none" xmlns="http://www.w3.org/2000/svg">
<g clip-path="url(#clip0_52_299)">
<path d="M23.5006 2.21045H6.18436C4.54477 2.21241 2.97289 2.86461 1.81353 4.02398C0.654159 5.18334 0.00196398 6.75522 0 8.39481L0 23.2373C0.00196398 24.8769 0.654159 26.4487 1.81353 27.6081C2.97289 28.7675 4.54477 29.4197 6.18436 29.4216H23.5006C25.1402 29.4197 26.712 28.7675 27.8714 27.6081C29.0308 26.4487 29.683 24.8769 29.6849 23.2373V8.39481C29.683 6.75522 29.0308 5.18334 27.8714 4.02398C26.712 2.86461 25.1402 2.21241 23.5006 2.21045V2.21045ZM6.18436 4.68419H23.5006C24.2412 4.68565 24.9644 4.9087 25.5772 5.32465C26.19 5.7406 26.6643 6.33041 26.9391 7.01817L17.4671 16.4914C16.77 17.1857 15.8263 17.5755 14.8425 17.5755C13.8586 17.5755 12.9149 17.1857 12.2178 16.4914L2.74586 7.01817C3.02063 6.33041 3.49492 5.7406 4.10771 5.32465C4.7205 4.9087 5.44374 4.68565 6.18436 4.68419V4.68419ZM23.5006 26.9479H6.18436C5.20024 26.9479 4.25643 26.557 3.56056 25.8611C2.86468 25.1652 2.47374 24.2214 2.47374 23.2373V10.2501L10.4689 18.2403C11.6298 19.3983 13.2027 20.0487 14.8425 20.0487C16.4822 20.0487 18.0551 19.3983 19.216 18.2403L27.2112 10.2501V23.2373C27.2112 24.2214 26.8203 25.1652 26.1244 25.8611C25.4285 26.557 24.4847 26.9479 23.5006 26.9479Z" fill="white"/>
</g>
<defs>
<clipPath id="clip0_52_299">
<rect width="29.6849" height="29.6849" fill="white" transform="translate(0 0.973755)"/>
</clipPath>
</defs>
</svg>
