<svg width="31" height="30" viewBox="0 0 31 30" fill="none" xmlns="http://www.w3.org/2000/svg">
<g clip-path="url(#clip0_52_301)">
<path d="M15.55 7.43542C14.5715 7.43542 13.615 7.72559 12.8014 8.26923C11.9877 8.81286 11.3536 9.58556 10.9791 10.4896C10.6047 11.3936 10.5067 12.3884 10.6976 13.3481C10.8885 14.3078 11.3597 15.1894 12.0516 15.8813C12.7435 16.5732 13.6251 17.0444 14.5848 17.2353C15.5445 17.4262 16.5393 17.3283 17.4434 16.9538C18.3474 16.5793 19.1201 15.9452 19.6637 15.1316C20.2074 14.318 20.4975 13.3614 20.4975 12.3829C20.4975 11.0708 19.9763 9.81234 19.0484 8.88451C18.1206 7.95668 16.8622 7.43542 15.55 7.43542ZM15.55 14.8567C15.0608 14.8567 14.5825 14.7116 14.1757 14.4398C13.7689 14.1679 13.4518 13.7816 13.2646 13.3296C13.0774 12.8776 13.0284 12.3802 13.1238 11.9003C13.2193 11.4205 13.4549 10.9797 13.8008 10.6337C14.1468 10.2878 14.5876 10.0522 15.0674 9.9567C15.5473 9.86125 16.0447 9.91024 16.4967 10.0975C16.9487 10.2847 17.3351 10.6018 17.6069 11.0086C17.8787 11.4154 18.0238 11.8937 18.0238 12.3829C18.0238 13.039 17.7631 13.6682 17.2992 14.1321C16.8353 14.596 16.2061 14.8567 15.55 14.8567Z" fill="white"/>
<path d="M15.5495 29.6995C14.508 29.7048 13.4804 29.4606 12.5527 28.9871C11.625 28.5137 10.8242 27.8249 10.2174 26.9784C5.50367 20.4761 3.11279 15.588 3.11279 12.4488C3.11279 9.15041 4.42309 5.98707 6.75543 3.65473C9.08778 1.32238 12.2511 0.012085 15.5495 0.012085C18.848 0.012085 22.0113 1.32238 24.3437 3.65473C26.676 5.98707 27.9863 9.15041 27.9863 12.4488C27.9863 15.588 25.5954 20.4761 20.8817 26.9784C20.2749 27.8249 19.4741 28.5137 18.5464 28.9871C17.6187 29.4606 16.5911 29.7048 15.5495 29.6995V29.6995ZM15.5495 2.71218C12.9675 2.71512 10.492 3.74215 8.66619 5.56796C6.84039 7.39376 5.81336 9.86924 5.81041 12.4513C5.81041 14.9374 8.15181 19.5349 12.4017 25.3964C12.7625 25.8934 13.2358 26.2978 13.7829 26.5767C14.3301 26.8556 14.9354 27.001 15.5495 27.001C16.1636 27.001 16.769 26.8556 17.3162 26.5767C17.8633 26.2978 18.3366 25.8934 18.6974 25.3964C22.9473 19.5349 25.2887 14.9374 25.2887 12.4513C25.2857 9.86924 24.2587 7.39376 22.4329 5.56796C20.6071 3.74215 18.1316 2.71512 15.5495 2.71218V2.71218Z" fill="white"/>
</g>
<defs>
<clipPath id="clip0_52_301">
<rect width="29.6849" height="29.6849" fill="white" transform="translate(0.70752 0.0141602)"/>
</clipPath>
</defs>
</svg>
