<svg width="30" height="30" viewBox="0 0 30 30" fill="none" xmlns="http://www.w3.org/2000/svg">
<g clip-path="url(#clip0_52_300)">
<path d="M16.0793 1.55208C16.0793 1.22404 16.2096 0.909438 16.4416 0.677479C16.6736 0.445521 16.9882 0.315208 17.3162 0.315208C20.5955 0.318809 23.7394 1.6231 26.0582 3.9419C28.377 6.26071 29.6813 9.40465 29.6849 12.6839C29.6849 13.012 29.5546 13.3266 29.3226 13.5585C29.0907 13.7905 28.7761 13.9208 28.448 13.9208C28.12 13.9208 27.8054 13.7905 27.5734 13.5585C27.3415 13.3266 27.2112 13.012 27.2112 12.6839C27.2082 10.0605 26.1648 7.54541 24.3097 5.69038C22.4547 3.83535 19.9396 2.7919 17.3162 2.78895C16.9882 2.78895 16.6736 2.65864 16.4416 2.42668C16.2096 2.19472 16.0793 1.88012 16.0793 1.55208V1.55208ZM17.3162 7.73644C18.6284 7.73644 19.8868 8.25769 20.8146 9.18553C21.7424 10.1134 22.2637 11.3718 22.2637 12.6839C22.2637 13.012 22.394 13.3266 22.626 13.5585C22.8579 13.7905 23.1725 13.9208 23.5006 13.9208C23.8286 13.9208 24.1432 13.7905 24.3752 13.5585C24.6071 13.3266 24.7374 13.012 24.7374 12.6839C24.7355 10.7163 23.953 8.82982 22.5616 7.4385C21.1703 6.04717 19.2838 5.26466 17.3162 5.2627C16.9882 5.2627 16.6736 5.39301 16.4416 5.62497C16.2096 5.85693 16.0793 6.17153 16.0793 6.49957C16.0793 6.82761 16.2096 7.14221 16.4416 7.37417C16.6736 7.60613 16.9882 7.73644 17.3162 7.73644V7.73644ZM28.5631 21.0192C29.2798 21.738 29.6824 22.7116 29.6824 23.7267C29.6824 24.7418 29.2798 25.7155 28.5631 26.4342L27.4375 27.7317C17.3075 37.43 -7.3433 12.7854 2.20535 2.62321L3.62775 1.38634C4.34732 0.689581 5.31228 0.304137 6.31387 0.313395C7.31545 0.322654 8.27312 0.725872 8.97969 1.43581C9.01803 1.47416 11.31 4.45131 11.31 4.45131C11.99 5.16576 12.3686 6.11481 12.367 7.10119C12.3654 8.08756 11.9837 9.03537 11.3013 9.7476L9.869 11.5485C10.6616 13.4744 11.827 15.2248 13.2982 16.6989C14.7694 18.1731 16.5174 19.342 18.4418 20.1386L20.2538 18.6976C20.9661 18.0157 21.9137 17.6345 22.8998 17.6331C23.8859 17.6317 24.8346 18.0103 25.5488 18.6902C25.5488 18.6902 28.5247 20.9809 28.5631 21.0192ZM26.8611 22.8176C26.8611 22.8176 23.9013 20.5405 23.863 20.5022C23.6081 20.2495 23.2638 20.1078 22.905 20.1078C22.5462 20.1078 22.2019 20.2495 21.947 20.5022C21.9136 20.5368 19.4189 22.5245 19.4189 22.5245C19.2508 22.6583 19.0507 22.746 18.8384 22.779C18.626 22.812 18.4088 22.789 18.208 22.7125C15.715 21.7843 13.4507 20.3312 11.5683 18.4516C9.68586 16.5719 8.22941 14.3097 7.29755 11.8181C7.21492 11.6146 7.18798 11.3927 7.2195 11.1754C7.25102 10.958 7.33986 10.7529 7.47689 10.5812C7.47689 10.5812 9.46454 8.08524 9.49794 8.05308C9.75059 7.79827 9.89235 7.45396 9.89235 7.09512C9.89235 6.73629 9.75059 6.39198 9.49794 6.13717C9.4596 6.10006 7.18252 3.13775 7.18252 3.13775C6.92389 2.90585 6.58635 2.78165 6.23909 2.79062C5.89183 2.79959 5.56115 2.94104 5.31484 3.18599L3.89244 4.42286C-3.08599 12.8138 18.276 32.9909 25.6292 26.0422L26.756 24.7434C27.02 24.4989 27.1786 24.1612 27.1983 23.8018C27.2179 23.4424 27.097 23.0895 26.8611 22.8176V22.8176Z" fill="white"/>
</g>
<defs>
<clipPath id="clip0_52_300">
<rect width="29.6849" height="29.6849" fill="white" transform="translate(0 0.315063)"/>
</clipPath>
</defs>
</svg>
